<svg width="128" height="128" viewBox="0 0 128 128" fill="none" xmlns="http://www.w3.org/2000/svg">
<circle cx="64" cy="64" r="40" fill="url(#paint0_linear_1_75)"/>
<path d="M42.6667 38C19.9111 38 5.68889 49.3778 0 72.1333C8.53333 60.7556 18.4889 56.4889 29.8667 59.3333C36.3583 60.9562 40.9982 65.6657 46.134 70.8789C54.5005 79.3712 64.1836 89.2 85.3333 89.2C108.089 89.2 122.311 77.8222 128 55.0667C119.467 66.4444 109.511 70.7111 98.1333 67.8667C91.6417 66.2437 87.0018 61.5343 81.866 56.3211C73.4995 47.8288 63.8164 38 42.6667 38Z" fill="url(#paint1_linear_1_75)"/>
<g filter="url(#filter0_d_1_75)">
<path d="M27.0248 59.064C26.6088 58.824 25.8008 58.704 24.6008 58.704L24.7448 60.192C24.8728 61.056 24.9848 62.672 25.0808 65.04C25.2248 65.008 25.3208 64.968 25.3688 64.92C25.4968 64.824 25.6328 64.776 25.7768 64.776C25.9848 64.728 26.1848 64.584 26.3768 64.344C26.8568 63.944 27.2248 63.608 27.4808 63.336L28.2728 62.424C28.3208 62.408 28.4008 62.232 28.5128 61.896C28.6248 61.544 28.6968 61.256 28.7288 61.032C28.7288 60.568 28.6808 60.304 28.5848 60.24C28.5848 60.208 28.4888 60.008 28.2968 59.64C28.2328 59.592 28.0408 59.472 27.7208 59.28L27.0248 59.064ZM22.0568 56.304L23.4008 56.112L25.1288 55.992L26.0408 56.112C26.1048 56.176 26.2568 56.216 26.4968 56.232C26.9608 56.216 27.5848 56.48 28.3688 57.024C28.5608 57.088 28.7208 57.2 28.8488 57.36L29.7608 58.464C29.7928 58.496 29.8408 58.584 29.9048 58.728C29.9688 58.856 30.0568 59.008 30.1688 59.184C30.1368 59.184 30.1608 59.248 30.2408 59.376C30.4488 59.728 30.5448 59.936 30.5288 60C30.6088 60.064 30.6888 60.272 30.7688 60.624C30.8488 60.976 30.8728 61.216 30.8408 61.344C30.8568 61.36 30.8408 61.544 30.7928 61.896C30.6808 62.664 30.4808 63.232 30.1928 63.6L29.8808 64.176L29.3528 64.944L29.0408 65.232C28.4648 65.872 27.7608 66.368 26.9288 66.72C26.8968 66.736 26.8488 66.752 26.7848 66.768L26.2088 66.96L25.2728 67.2C25.2728 67.664 25.3288 68.736 25.4408 70.416C25.5048 70.992 25.5528 71.312 25.5848 71.376C25.5848 71.904 25.5528 72.256 25.4888 72.432C25.4248 72.624 25.3208 72.76 25.1768 72.84C25.0328 72.936 24.7848 72.992 24.4328 73.008C24.3368 73.04 24.1688 73.008 23.9288 72.912C23.6888 72.832 23.4968 72.704 23.3528 72.528L23.2088 71.76C23.2408 71.728 23.1928 71.576 23.0648 71.304C22.9528 71.176 22.8648 70.952 22.8008 70.632L22.6328 68.352L22.6088 67.584C21.6808 67.648 21.1208 67.392 20.9288 66.816C20.7688 66.512 20.7368 66.312 20.8328 66.216L20.9528 65.904C21.1448 65.6 21.5128 65.448 22.0568 65.448H22.5608C22.5288 65.416 22.5128 65.304 22.5128 65.112L22.4168 64.104V63.672L22.3928 63.36C22.4088 63.216 22.4008 63.056 22.3688 62.88V62.736L22.3208 62.136V61.68L22.2968 61.44C22.2968 60.304 22.2328 59.584 22.1048 59.28C21.5768 59.584 21.2248 59.752 21.0488 59.784C20.8728 59.8 20.5768 59.68 20.1608 59.424C19.9848 59.28 19.8888 59.12 19.8728 58.944C19.5848 58.544 19.4888 58.216 19.5848 57.96C19.6168 57.832 19.7448 57.632 19.9688 57.36C19.9848 57.296 20.1768 57.152 20.5448 56.928C20.8328 56.64 21.3368 56.432 22.0568 56.304ZM34.6285 70.608C34.5965 70.672 34.5805 70.728 34.5805 70.776C34.5805 70.824 34.5645 70.88 34.5325 70.944C34.5005 70.992 34.4445 71.08 34.3645 71.208C34.2845 71.32 34.2125 71.416 34.1485 71.496C34.1005 71.56 34.0125 71.672 33.8845 71.832C33.7565 71.976 33.6445 72.072 33.5485 72.12C33.4685 72.168 33.3645 72.224 33.2365 72.288C33.1085 72.352 32.9725 72.376 32.8285 72.36C32.7005 72.36 32.5565 72.336 32.3965 72.288C32.2365 72.24 31.9885 71.96 31.6525 71.448C31.4125 70.952 31.3965 70.44 31.6045 69.912C32.1805 68.696 32.5005 68.008 32.5645 67.848L32.8525 67.344C32.9805 66.944 33.0765 66.68 33.1405 66.552C33.2205 66.424 33.3325 66.272 33.4765 66.096C33.6205 65.92 33.7405 65.752 33.8365 65.592C34.1245 65.064 34.5645 64.456 35.1565 63.768C34.8205 63.048 34.6045 62.52 34.5085 62.184L34.2205 61.584C34.0765 61.472 33.9565 61.28 33.8605 61.008C33.1885 59.824 32.8365 59.192 32.8045 59.112C32.7725 59.016 32.6765 58.832 32.5165 58.56C32.1805 57.984 32.0125 57.52 32.0125 57.168C32.0125 56.816 32.1005 56.552 32.2765 56.376C32.4685 56.184 32.7325 56.104 33.0685 56.136C33.1005 56.136 33.1885 56.136 33.3325 56.136C33.4925 56.12 33.5965 56.12 33.6445 56.136C33.7085 56.136 33.7965 56.16 33.9085 56.208C34.0365 56.24 34.1405 56.304 34.2205 56.4C34.4285 56.608 34.6365 56.944 34.8445 57.408L35.1565 57.912L35.6365 58.848L35.9245 59.544C36.3245 60.136 36.6525 60.736 36.9085 61.344C37.0045 61.152 37.1405 60.936 37.3165 60.696C37.5085 60.44 37.6125 60.296 37.6285 60.264C37.6445 60.232 37.6925 60.16 37.7725 60.048C37.8525 59.92 37.9485 59.768 38.0605 59.592L38.5645 59.136C38.5805 59.12 38.6445 58.992 38.7565 58.752L39.2125 58.104C39.2765 58.072 39.3805 57.992 39.5245 57.864C39.5565 57.736 39.8285 57.32 40.3405 56.616C40.6125 56.424 40.8765 56.32 41.1325 56.304C41.3885 56.272 41.6285 56.28 41.8525 56.328C42.0765 56.376 42.3565 56.536 42.6925 56.808C43.1245 57.352 42.8685 58.216 41.9245 59.4L41.2285 60.648L40.3165 62.112C40.0765 62.432 39.4045 63.24 38.3005 64.536C38.3325 64.616 38.7005 65.296 39.4045 66.576L39.8605 67.512C39.9725 67.672 40.0925 67.872 40.2205 68.112L40.9405 69.888C41.1005 70.112 41.2045 70.296 41.2525 70.44C41.2845 70.536 41.3885 70.776 41.5645 71.16C41.6925 71.768 41.4525 72.176 40.8445 72.384C40.5885 72.48 40.3565 72.472 40.1485 72.36L39.8605 72.264C39.5565 72.184 39.3165 72.016 39.1405 71.76L38.9725 71.568L38.7565 71.208C38.5485 71 38.4045 70.8 38.3245 70.608L38.1565 70.248C38.0125 70.136 37.7965 69.656 37.5085 68.808C37.4765 68.776 37.2045 68.088 36.6925 66.744C36.6605 66.792 36.5725 66.976 36.4285 67.296C35.9965 68.224 35.6365 68.888 35.3485 69.288C35.3485 69.416 35.1085 69.856 34.6285 70.608ZM50.7985 63.528L50.8225 63.312C50.4865 63.28 50.2465 63.256 50.1025 63.24C49.9745 63.208 49.7585 63.176 49.4545 63.144C49.1505 63.112 48.9105 63.064 48.7345 63C48.3985 62.888 48.2065 62.6 48.1585 62.136C48.1105 61.656 48.2625 61.36 48.6145 61.248C48.9345 61.168 49.1585 61.128 49.2865 61.128C49.4145 61.128 49.6545 61.112 50.0065 61.08C50.1825 60.984 50.4225 60.928 50.7265 60.912L51.0865 60.816C51.0865 60.832 51.1505 60.816 51.2785 60.768L51.3985 60.264C51.3985 60.008 51.4705 59.752 51.6145 59.496C51.6145 59.384 51.7185 59.072 51.9265 58.56C51.9265 58.496 52.0705 58.032 52.3585 57.168C52.4225 57.088 52.6625 56.904 53.0785 56.616C53.3345 56.488 53.6945 56.576 54.1585 56.88C54.4145 56.992 54.5905 57.144 54.6865 57.336C54.5905 57.432 54.5425 57.656 54.5425 58.008C54.5265 58.12 54.4145 58.712 54.2065 59.784V60.456C54.3345 60.472 54.5425 60.512 54.8305 60.576C55.1345 60.64 55.4945 60.712 55.9105 60.792C56.7105 60.952 57.2145 61.272 57.4225 61.752C57.5025 62.104 57.4865 62.352 57.3745 62.496C57.2625 62.64 56.9905 62.744 56.5585 62.808C56.2065 62.824 55.7425 62.832 55.1665 62.832C54.6065 62.832 54.1905 62.872 53.9185 62.952C53.8865 63.24 53.8705 63.464 53.8705 63.624L53.8465 63.984C53.8465 64.096 53.7745 64.688 53.6305 65.76C53.5345 65.904 53.4545 66.648 53.3905 67.992V69.744C53.3905 70.032 53.4145 70.304 53.4625 70.56C53.4785 70.912 53.5185 71.16 53.5825 71.304C53.5825 71.448 53.6225 71.752 53.7025 72.216C53.5105 72.68 53.1905 72.912 52.7425 72.912C52.3105 72.912 51.9265 72.752 51.5905 72.432L51.3265 72.048C51.2785 71.92 51.2385 71.832 51.2065 71.784C51.1905 71.736 51.1745 71.68 51.1585 71.616C51.0465 71.296 50.9585 71.096 50.8945 71.016C50.7985 70.888 50.7505 70.792 50.7505 70.728C50.7505 70.664 50.7505 70.584 50.7505 70.488C50.7185 70.216 50.6785 69.984 50.6305 69.792C50.5505 69.712 50.5105 69.44 50.5105 68.976C50.5425 68.128 50.5425 67.64 50.5105 67.512C50.5585 67.464 50.5665 67.16 50.5345 66.6L50.6065 66.072C50.6065 66.008 50.6385 65.768 50.7025 65.352C50.6705 65.288 50.6625 65.12 50.6785 64.848C50.6945 64.56 50.7185 64.36 50.7505 64.248C50.7825 64.056 50.7985 63.816 50.7985 63.528ZM61.9017 64.92C61.7897 64.28 61.4777 63.984 60.9657 64.032C60.6777 64.048 60.4297 64.24 60.2217 64.608C59.9337 65.168 59.8057 65.896 59.8377 66.792C59.8857 67.672 59.9497 68.312 60.0297 68.712C60.1257 69.096 60.2857 69.432 60.5097 69.72C60.6377 69.944 60.8297 70.048 61.0857 70.032C61.5337 70.032 61.8617 69.656 62.0697 68.904L62.2617 68.328C62.3417 68.248 62.3577 68.168 62.3097 68.088C62.4697 67.688 62.5577 67.216 62.5737 66.672C62.4137 66.56 62.3177 66.456 62.2857 66.36C62.1897 66.088 62.1417 65.904 62.1417 65.808C62.0297 65.728 61.9657 65.576 61.9497 65.352C61.9337 65.128 61.9177 64.984 61.9017 64.92ZM57.5097 67.176L57.6057 65.952C57.7177 64.848 58.0537 63.904 58.6137 63.12C59.1577 62.464 59.9257 62.128 60.9177 62.112H61.0617C61.9897 62.112 62.6617 62.312 63.0777 62.712C63.5257 63.064 63.8537 63.448 64.0617 63.864C64.2857 64.28 64.4297 64.584 64.4937 64.776C64.5577 64.968 64.5977 65.248 64.6137 65.616C64.6457 66.304 64.5097 66.696 64.2057 66.792C64.4297 68.312 64.2937 69.52 63.7977 70.416C63.6377 70.784 63.4057 71.184 63.1017 71.616C62.8777 71.904 62.4777 72.064 61.9017 72.096C61.3257 72.096 60.8217 72.064 60.3897 72C59.9737 71.936 59.5097 71.736 58.9977 71.4C58.4857 71.048 58.1257 70.48 57.9177 69.696C57.6937 68.944 57.5577 68.104 57.5097 67.176ZM75.5991 61.248C75.5991 61.568 75.4871 62.448 75.2631 63.888L75.1911 64.224C75.2551 64.192 75.3831 64.08 75.5751 63.888C75.8791 63.616 76.3591 63.288 77.0151 62.904L77.3751 62.64L78.1191 62.328L78.9351 61.824C78.9031 61.792 78.9431 61.712 79.0551 61.584C79.3751 61.04 79.5671 60.584 79.6311 60.216C79.6311 59.992 79.5991 59.832 79.5351 59.736C79.4871 59.624 79.2951 59.552 78.9591 59.52C78.9111 59.472 78.7591 59.424 78.5031 59.376C77.8631 59.328 77.3271 59.384 76.8951 59.544H76.7031L76.3431 59.64H75.9351L75.8151 60.288C75.8151 60.32 75.7751 60.48 75.6951 60.768C75.6951 60.896 75.6631 61.056 75.5991 61.248ZM72.1431 66.312C72.1911 66.168 72.2711 65.656 72.3831 64.776L72.8391 62.088C72.8711 62.024 72.9111 61.856 72.9591 61.584C72.9591 61.408 72.9751 61.232 73.0071 61.056C73.0551 60.864 73.0791 60.536 73.0791 60.072L72.7911 59.88L72.3351 59.664C72.1431 59.568 71.9431 59.416 71.7351 59.208C71.6551 59.16 71.6311 59.04 71.6631 58.848C71.6951 58.64 71.8151 58.48 72.0231 58.368C72.0711 58.368 72.2391 58.312 72.5271 58.2C72.6231 58.2 72.7831 58.128 73.0071 57.984C73.0551 57.984 73.1991 57.912 73.4391 57.768L74.4951 57.384C74.5751 57.384 74.7031 57.344 74.8791 57.264C75.0711 57.184 75.2631 57.136 75.4551 57.12L76.3911 57.048C76.8711 56.968 77.2871 56.992 77.6391 57.12C77.8791 57.12 78.1031 57.168 78.3111 57.264C78.4551 57.264 78.6711 57.32 78.9591 57.432C79.1671 57.464 79.3831 57.552 79.6071 57.696C79.7191 57.696 79.8231 57.728 79.9191 57.792C80.1111 57.936 80.3111 58.056 80.5191 58.152L81.0951 58.656C81.4151 58.912 81.7111 59.264 81.9831 59.712C82.2871 60.032 82.2791 60.512 81.9591 61.152C81.9431 61.248 81.8791 61.4 81.7671 61.608C81.2871 62.584 80.4071 63.552 79.1271 64.512L78.4071 64.8L77.2071 65.496C77.3511 65.72 77.6471 66.144 78.0951 66.768L80.0151 69.24L80.2791 69.696L80.9031 70.44C80.9511 70.552 81.0871 70.688 81.3111 70.848L81.6951 71.256C82.0471 71.56 82.1831 71.896 82.1031 72.264C82.0391 72.632 81.8151 72.816 81.4311 72.816L80.8551 72.744L79.7031 72.384L79.3191 72C78.9671 71.824 78.6951 71.64 78.5031 71.448C78.3271 71.24 78.0711 70.976 77.7351 70.656C77.4471 70.464 77.0551 70.072 76.5591 69.48C76.5591 69.464 76.5111 69.336 76.4151 69.096C76.2231 68.936 76.0551 68.576 75.9111 68.016C75.8951 68 75.8711 67.968 75.8391 67.92C75.8071 67.872 75.7511 67.8 75.6711 67.704C75.6071 67.592 75.5591 67.496 75.5271 67.416C75.4311 66.984 75.2631 66.608 75.0231 66.288H74.9271C74.9271 66.384 74.8951 66.52 74.8311 66.696V67.176L74.6391 68.568L74.3031 70.296C74.3031 70.344 74.2791 70.448 74.2311 70.608C74.1991 70.768 74.1831 70.864 74.1831 70.896C74.1991 70.912 74.2071 71 74.2071 71.16C74.2071 71.304 74.1911 71.424 74.1591 71.52C74.1591 71.648 74.1111 71.856 74.0151 72.144C73.9351 72.432 73.8071 72.616 73.6311 72.696C73.4711 72.792 73.1671 72.8 72.7191 72.72C72.5591 72.656 72.3431 72.424 72.0711 72.024C71.9431 71.976 71.7911 71.712 71.6151 71.232C71.6471 70.944 71.6631 70.768 71.6631 70.704C71.6631 70.64 71.6551 70.552 71.6391 70.44C71.6551 70.152 71.6711 69.912 71.6871 69.72V69.552C71.6871 69.52 71.6951 69.48 71.7111 69.432C71.7271 69.368 71.7431 69.28 71.7591 69.168C71.7911 69.04 71.8231 68.936 71.8551 68.856C71.8871 68.728 71.9031 68.544 71.9031 68.304C71.9031 68.064 71.9591 67.832 72.0711 67.608C72.0711 67.4 72.0951 66.968 72.1431 66.312ZM86.4031 66.408V67.368C86.4031 68.36 86.4591 68.912 86.5711 69.024C86.5551 69.04 86.5951 69.232 86.6911 69.6C86.6911 69.728 86.7551 69.928 86.8831 70.2C86.8831 70.28 87.1071 70.472 87.5551 70.776C87.7471 70.776 88.2191 70.616 88.9711 70.296L90.6751 69.648C90.8831 69.584 91.0751 69.616 91.2511 69.744C91.4431 69.856 91.5551 70.064 91.5871 70.368C91.6351 70.656 91.6271 70.864 91.5631 70.992C91.5151 71.12 91.3791 71.28 91.1551 71.472C90.9471 71.664 90.8111 71.8 90.7471 71.88C90.6831 71.96 90.5631 72.04 90.3871 72.12C90.2111 72.216 90.0111 72.312 89.7871 72.408C89.5791 72.504 89.4351 72.576 89.3551 72.624C88.7311 72.912 88.2511 73.024 87.9151 72.96C87.7071 72.96 87.4911 72.92 87.2671 72.84C87.0591 72.76 86.9391 72.72 86.9071 72.72C86.8911 72.736 86.8271 72.728 86.7151 72.696C86.6191 72.68 86.5231 72.656 86.4271 72.624C86.3311 72.608 86.0831 72.56 85.6831 72.48C85.6831 72.416 85.5711 72.352 85.3471 72.288L84.6991 71.76C84.5871 71.696 84.4671 71.496 84.3391 71.16L84.1231 70.8C84.0591 70.752 83.9711 70.568 83.8591 70.248C83.7951 70.168 83.7551 70.024 83.7391 69.816C83.6591 69.64 83.6191 69.392 83.6191 69.072C83.5551 68.992 83.4831 68.688 83.4031 68.16C83.2911 67.472 83.2831 66.856 83.3791 66.312C83.3791 66.008 83.4351 65.712 83.5471 65.424C83.5631 65.296 83.5791 65.168 83.5951 65.04C83.6751 64.624 83.7311 64.304 83.7631 64.08C83.6991 63.856 83.8031 63.32 84.0751 62.472C84.0751 62.344 84.1231 62.16 84.2191 61.92C84.3311 61.664 84.3951 61.4 84.4111 61.128L84.6031 60.672C84.6031 60.544 84.7231 60.072 84.9631 59.256C85.0911 58.952 85.1551 58.776 85.1551 58.728L85.7551 57.456L86.0431 57.072C86.1551 56.96 86.3231 56.864 86.5471 56.784C86.6431 56.704 86.8991 56.712 87.3151 56.808C87.5711 56.904 87.7471 57 87.8431 57.096C87.9551 57.144 88.0911 57.168 88.2511 57.168L90.0991 57.048C90.5631 57.08 90.8751 57.136 91.0351 57.216C91.1951 57.28 91.3471 57.4 91.4911 57.576C91.6511 57.752 91.7071 57.928 91.6591 58.104C91.6271 58.28 91.5631 58.416 91.4671 58.512C91.2591 58.688 90.8751 58.896 90.3151 59.136C89.3391 59.664 88.8111 59.944 88.7311 59.976L88.1551 60.24C87.9151 60.4 87.7631 60.568 87.6991 60.744C87.2031 62.536 86.9311 63.536 86.8831 63.744C86.8511 63.936 86.8271 64.056 86.8111 64.104C86.8111 64.136 86.8111 64.16 86.8111 64.176L87.2911 64.128C87.9951 63.904 88.4111 63.832 88.5391 63.912C88.6031 63.912 88.6911 63.888 88.8031 63.84C89.3951 63.632 89.9151 63.544 90.3631 63.576C90.4431 63.528 90.5311 63.56 90.6271 63.672C90.7231 63.784 90.7951 63.92 90.8431 64.08C90.9391 64.48 90.8191 64.792 90.4831 65.016C89.8111 65.464 89.0111 65.824 88.0831 66.096C87.7791 66.336 87.3551 66.488 86.8111 66.552L86.4031 66.408ZM99.3239 61.104C99.3399 61.376 99.4039 62.008 99.5159 63C99.6919 64.76 99.7959 65.832 99.8279 66.216L100.068 67.344L100.26 68.472C100.612 67.768 100.78 67.36 100.764 67.248C100.764 67.136 100.9 66.72 101.172 66C101.556 65.312 101.804 64.704 101.916 64.176C101.932 64.08 102.02 63.848 102.18 63.48C102.132 63.432 102.172 63.28 102.3 63.024C102.428 62.752 102.524 62.464 102.588 62.16C102.668 61.856 102.708 61.696 102.708 61.68C102.724 61.664 102.74 61.648 102.756 61.632C102.804 61.584 102.868 61.44 102.948 61.2C102.996 60.976 103.02 60.8 103.02 60.672V59.928C103.02 59.88 103.06 59.712 103.14 59.424L103.116 58.872C103.116 58.488 103.3 57.992 103.668 57.384L104.148 56.976C104.148 56.832 104.268 56.744 104.508 56.712C104.764 56.68 104.988 56.696 105.18 56.76C105.372 56.824 105.5 56.856 105.564 56.856C105.628 56.92 105.86 57 106.26 57.096C106.452 57.16 106.572 57.28 106.62 57.456C106.684 57.632 106.716 57.872 106.716 58.176L106.548 60.048C106.548 60.16 106.5 60.936 106.404 62.376L106.428 63.144C106.412 63.176 106.404 63.448 106.404 63.96V65.208C106.404 65.448 106.404 65.6 106.404 65.664L106.476 66.576C106.412 66.576 106.508 67.288 106.764 68.712C106.764 68.936 106.844 69.424 107.004 70.176C107.18 70.912 107.228 71.528 107.148 72.024C107.148 72.28 106.916 72.512 106.452 72.72C106.1 72.656 105.884 72.552 105.804 72.408C105.66 72.328 105.572 72.264 105.54 72.216L105.348 71.976C105.092 71.768 104.884 71.52 104.724 71.232C104.612 71.12 104.532 70.96 104.484 70.752C104.324 70.528 104.228 70.248 104.196 69.912C104.164 69.576 104.1 69.344 104.004 69.216C103.924 69.072 103.86 68.936 103.812 68.808C103.636 68.632 103.524 68.32 103.476 67.872C103.428 67.408 103.38 67.008 103.332 66.672C103.332 66.48 103.34 66.336 103.356 66.24C103.308 66.112 103.276 66.016 103.26 65.952C103.26 65.888 103.252 65.816 103.236 65.736L103.14 66.192C103.092 66.272 102.988 66.584 102.828 67.128L102.324 68.688L101.892 70.2C101.812 70.248 101.716 70.44 101.604 70.776C101.46 71.144 101.372 71.344 101.34 71.376C101.324 71.408 101.3 71.456 101.268 71.52C101.14 71.776 100.996 71.984 100.836 72.144C100.404 72.544 99.9559 72.656 99.4919 72.48C99.0439 72.32 98.7159 72 98.5079 71.52C98.3959 71.248 98.3079 71.072 98.2439 70.992C98.2279 70.864 98.1399 70.64 97.9799 70.32C97.8679 70.016 97.7799 69.632 97.7159 69.168C97.6359 69.024 97.5799 68.776 97.5479 68.424C97.4679 68.28 97.4119 68.072 97.3799 67.8C97.3479 67.528 97.2999 67.264 97.2359 67.008C97.1559 66.736 97.0999 66.408 97.0679 66.024C97.0359 65.736 96.9159 65.208 96.7079 64.44C96.6599 64.392 96.5959 64.232 96.5159 63.96C96.4839 64.216 96.4679 64.36 96.4679 64.392C96.4679 64.408 96.4039 64.8 96.2759 65.568C96.3079 65.6 96.2999 65.84 96.2519 66.288C96.1559 66.592 96.0999 66.912 96.0839 67.248C95.9559 68.112 95.8999 68.76 95.9159 69.192C95.9639 69.336 95.9639 69.512 95.9159 69.72C95.8839 69.912 95.8519 70.112 95.8199 70.32C95.8039 70.512 95.7719 70.688 95.7239 70.848V71.016C95.6759 71.512 95.6679 71.792 95.6999 71.856C95.6999 72.032 95.6279 72.248 95.4839 72.504C95.3559 72.76 95.1479 72.856 94.8599 72.792C94.3479 72.664 94.0519 72.568 93.9719 72.504C93.7959 72.216 93.7079 71.96 93.7079 71.736V70.584L93.7559 70.152C93.7399 70.104 93.7479 69.92 93.7799 69.6C93.7639 69.584 93.7559 69.456 93.7559 69.216C93.7559 68.96 93.7319 68.768 93.6839 68.64V68.4C93.6519 67.856 93.6439 67.544 93.6599 67.464C93.6919 67.368 93.6919 67.168 93.6599 66.864C93.7239 66.864 93.7639 66.744 93.7799 66.504C93.7959 66.248 93.8199 65.976 93.8519 65.688L94.0199 65.616C93.9879 65.6 93.9799 65.376 93.9959 64.944C94.0119 64.832 94.0519 64.544 94.1159 64.08C94.1799 63.616 94.2039 63.304 94.1879 63.144C94.1879 62.968 94.2759 62.696 94.4519 62.328C94.7879 61.32 94.9639 60.68 94.9799 60.408C95.0119 60.136 95.0599 59.896 95.1239 59.688C95.1879 59.16 95.3399 58.72 95.5799 58.368C95.6919 58.016 95.8999 57.808 96.2039 57.744L96.4919 57.528H96.5159C96.8199 57.304 97.3639 57.272 98.1479 57.432C98.8199 57.736 99.1879 58.112 99.2519 58.56C99.1879 58.784 99.2119 59.56 99.3239 60.888V61.104Z" fill="white"/>
</g>
<defs>
<filter id="filter0_d_1_75" x="15.4408" y="55.992" width="95.8271" height="25.064" filterUnits="userSpaceOnUse" color-interpolation-filters="sRGB">
<feFlood flood-opacity="0" result="BackgroundImageFix"/>
<feColorMatrix in="SourceAlpha" type="matrix" values="0 0 0 0 0 0 0 0 0 0 0 0 0 0 0 0 0 0 127 0" result="hardAlpha"/>
<feOffset dy="4"/>
<feGaussianBlur stdDeviation="2"/>
<feComposite in2="hardAlpha" operator="out"/>
<feColorMatrix type="matrix" values="0 0 0 0 0 0 0 0 0 0 0 0 0 0 0 0 0 0 0.25 0"/>
<feBlend mode="normal" in2="BackgroundImageFix" result="effect1_dropShadow_1_75"/>
<feBlend mode="normal" in="SourceGraphic" in2="effect1_dropShadow_1_75" result="shape"/>
</filter>
<linearGradient id="paint0_linear_1_75" x1="64" y1="24" x2="64" y2="104" gradientUnits="userSpaceOnUse">
<stop stop-color="#C996FF"/>
<stop offset="1" stop-color="#D47AFE"/>
</linearGradient>
<linearGradient id="paint1_linear_1_75" x1="-474.074" y1="3263.6" x2="14265.8" y2="11762.3" gradientUnits="userSpaceOnUse">
<stop stop-color="#6528F7"/>
<stop offset="0.98" stop-color="#D7BBF5"/>
</linearGradient>
</defs>
</svg>
